<svg xmlns="http://www.w3.org/2000/svg" width="1600" height="900" viewBox="0 0 1600 900" font-family="Liberation Sans, DejaVu Sans, sans-serif">
<rect width="1600" height="900" fill="#14161b"/>
<text x="120" y="130" font-size="50" font-weight="700" fill="#eceef2">The reply lands when your line ends</text>
<text x="122" y="176" font-size="26" fill="#98a0ad">A small SKSE plugin watches your voiced line and cues the NPC&#39;s reply the moment it stops.</text>
<line x1="704.0" y1="320" x2="704.0" y2="540" stroke="#e0a85c" stroke-width="2.5" stroke-dasharray="6 6"/>
<text x="704.0" y="308" font-size="24" font-weight="700" fill="#e0a85c" text-anchor="middle">line ends — detected</text>
<rect x="704.0" y="424" width="60.0" height="92" rx="5" fill="#262932" stroke="#3a3f4b" stroke-width="1.5"/>
<rect x="200.0" y="445.0" width="4.5" height="49.9" rx="1.6" fill="#8b93a3"/>
<rect x="208.0" y="430.6" width="4.5" height="78.7" rx="1.6" fill="#8b93a3"/>
<rect x="216.0" y="430.8" width="4.5" height="78.3" rx="1.6" fill="#8b93a3"/>
<rect x="224.0" y="438.5" width="4.5" height="62.9" rx="1.6" fill="#8b93a3"/>
<rect x="232.0" y="441.7" width="4.5" height="56.6" rx="1.6" fill="#8b93a3"/>
<rect x="240.0" y="440.9" width="4.5" height="58.3" rx="1.6" fill="#8b93a3"/>
<rect x="248.0" y="431.7" width="4.5" height="76.6" rx="1.6" fill="#8b93a3"/>
<rect x="256.0" y="432.2" width="4.5" height="75.6" rx="1.6" fill="#8b93a3"/>
<rect x="264.0" y="436.8" width="4.5" height="66.5" rx="1.6" fill="#8b93a3"/>
<rect x="272.0" y="436.2" width="4.5" height="67.7" rx="1.6" fill="#8b93a3"/>
<rect x="280.0" y="435.2" width="4.5" height="69.5" rx="1.6" fill="#8b93a3"/>
<rect x="288.0" y="442.5" width="4.5" height="54.9" rx="1.6" fill="#8b93a3"/>
<rect x="296.0" y="443.8" width="4.5" height="52.4" rx="1.6" fill="#8b93a3"/>
<rect x="304.0" y="444.8" width="4.5" height="50.3" rx="1.6" fill="#8b93a3"/>
<rect x="312.0" y="439.9" width="4.5" height="60.2" rx="1.6" fill="#8b93a3"/>
<rect x="320.0" y="437.7" width="4.5" height="64.6" rx="1.6" fill="#8b93a3"/>
<rect x="328.0" y="446.8" width="4.5" height="46.5" rx="1.6" fill="#8b93a3"/>
<rect x="336.0" y="455.1" width="4.5" height="29.8" rx="1.6" fill="#8b93a3"/>
<rect x="344.0" y="448.1" width="4.5" height="43.8" rx="1.6" fill="#8b93a3"/>
<rect x="352.0" y="434.5" width="4.5" height="70.9" rx="1.6" fill="#8b93a3"/>
<rect x="360.0" y="430.0" width="4.5" height="80.0" rx="1.6" fill="#8b93a3"/>
<rect x="368.0" y="434.1" width="4.5" height="71.9" rx="1.6" fill="#8b93a3"/>
<rect x="376.0" y="449.9" width="4.5" height="40.3" rx="1.6" fill="#8b93a3"/>
<rect x="384.0" y="446.2" width="4.5" height="47.6" rx="1.6" fill="#8b93a3"/>
<rect x="392.0" y="430.3" width="4.5" height="79.4" rx="1.6" fill="#8b93a3"/>
<rect x="400.0" y="430.0" width="4.5" height="80.0" rx="1.6" fill="#8b93a3"/>
<rect x="408.0" y="430.0" width="4.5" height="80.0" rx="1.6" fill="#8b93a3"/>
<rect x="416.0" y="444.5" width="4.5" height="51.1" rx="1.6" fill="#8b93a3"/>
<rect x="424.0" y="452.4" width="4.5" height="35.1" rx="1.6" fill="#8b93a3"/>
<rect x="432.0" y="436.4" width="4.5" height="67.3" rx="1.6" fill="#8b93a3"/>
<rect x="440.0" y="430.0" width="4.5" height="80.0" rx="1.6" fill="#8b93a3"/>
<rect x="448.0" y="436.0" width="4.5" height="68.1" rx="1.6" fill="#8b93a3"/>
<rect x="456.0" y="447.5" width="4.5" height="45.0" rx="1.6" fill="#8b93a3"/>
<rect x="464.0" y="452.7" width="4.5" height="34.7" rx="1.6" fill="#8b93a3"/>
<rect x="472.0" y="450.0" width="4.5" height="40.1" rx="1.6" fill="#8b93a3"/>
<rect x="480.0" y="439.1" width="4.5" height="61.8" rx="1.6" fill="#8b93a3"/>
<rect x="488.0" y="440.4" width="4.5" height="59.3" rx="1.6" fill="#8b93a3"/>
<rect x="496.0" y="442.9" width="4.5" height="54.2" rx="1.6" fill="#8b93a3"/>
<rect x="504.0" y="439.8" width="4.5" height="60.5" rx="1.6" fill="#8b93a3"/>
<rect x="512.0" y="438.4" width="4.5" height="63.2" rx="1.6" fill="#8b93a3"/>
<rect x="520.0" y="437.9" width="4.5" height="64.1" rx="1.6" fill="#8b93a3"/>
<rect x="528.0" y="438.2" width="4.5" height="63.6" rx="1.6" fill="#8b93a3"/>
<rect x="536.0" y="436.5" width="4.5" height="67.1" rx="1.6" fill="#8b93a3"/>
<rect x="544.0" y="430.0" width="4.5" height="80.0" rx="1.6" fill="#8b93a3"/>
<rect x="552.0" y="430.0" width="4.5" height="80.0" rx="1.6" fill="#8b93a3"/>
<rect x="560.0" y="442.1" width="4.5" height="55.8" rx="1.6" fill="#8b93a3"/>
<rect x="568.0" y="445.3" width="4.5" height="49.5" rx="1.6" fill="#8b93a3"/>
<rect x="576.0" y="440.0" width="4.5" height="59.9" rx="1.6" fill="#8b93a3"/>
<rect x="584.0" y="430.5" width="4.5" height="79.0" rx="1.6" fill="#8b93a3"/>
<rect x="592.0" y="430.0" width="4.5" height="80.0" rx="1.6" fill="#8b93a3"/>
<rect x="600.0" y="444.2" width="4.5" height="51.5" rx="1.6" fill="#8b93a3"/>
<rect x="608.0" y="460.4" width="4.5" height="19.3" rx="1.6" fill="#8b93a3"/>
<rect x="616.0" y="451.9" width="4.5" height="36.2" rx="1.6" fill="#8b93a3"/>
<rect x="624.0" y="437.2" width="4.5" height="65.6" rx="1.6" fill="#8b93a3"/>
<rect x="632.0" y="431.5" width="4.5" height="77.0" rx="1.6" fill="#8b93a3"/>
<rect x="640.0" y="440.8" width="4.5" height="58.4" rx="1.6" fill="#8b93a3"/>
<rect x="648.0" y="453.1" width="4.5" height="33.9" rx="1.6" fill="#8b93a3"/>
<rect x="656.0" y="448.7" width="4.5" height="42.6" rx="1.6" fill="#8b93a3"/>
<rect x="664.0" y="430.9" width="4.5" height="78.3" rx="1.6" fill="#8b93a3"/>
<rect x="672.0" y="430.0" width="4.5" height="80.0" rx="1.6" fill="#8b93a3"/>
<rect x="680.0" y="433.0" width="4.5" height="73.9" rx="1.6" fill="#8b93a3"/>
<rect x="688.0" y="442.3" width="4.5" height="55.3" rx="1.6" fill="#8b93a3"/>
<rect x="696.0" y="444.5" width="4.5" height="50.9" rx="1.6" fill="#8b93a3"/>
<rect x="764.0" y="434.2" width="4.5" height="71.6" rx="1.6" fill="#6ea8d8"/>
<rect x="772.0" y="446.5" width="4.5" height="47.1" rx="1.6" fill="#6ea8d8"/>
<rect x="780.0" y="456.6" width="4.5" height="26.8" rx="1.6" fill="#6ea8d8"/>
<rect x="788.0" y="442.0" width="4.5" height="56.0" rx="1.6" fill="#6ea8d8"/>
<rect x="796.0" y="432.0" width="4.5" height="76.0" rx="1.6" fill="#6ea8d8"/>
<rect x="804.0" y="432.0" width="4.5" height="76.0" rx="1.6" fill="#6ea8d8"/>
<rect x="812.0" y="438.4" width="4.5" height="63.1" rx="1.6" fill="#6ea8d8"/>
<rect x="820.0" y="448.6" width="4.5" height="42.8" rx="1.6" fill="#6ea8d8"/>
<rect x="828.0" y="443.9" width="4.5" height="52.1" rx="1.6" fill="#6ea8d8"/>
<rect x="836.0" y="432.0" width="4.5" height="76.0" rx="1.6" fill="#6ea8d8"/>
<rect x="844.0" y="432.0" width="4.5" height="76.0" rx="1.6" fill="#6ea8d8"/>
<rect x="852.0" y="439.7" width="4.5" height="60.5" rx="1.6" fill="#6ea8d8"/>
<rect x="860.0" y="446.8" width="4.5" height="46.5" rx="1.6" fill="#6ea8d8"/>
<rect x="868.0" y="448.4" width="4.5" height="43.1" rx="1.6" fill="#6ea8d8"/>
<rect x="876.0" y="442.2" width="4.5" height="55.6" rx="1.6" fill="#6ea8d8"/>
<rect x="884.0" y="442.4" width="4.5" height="55.3" rx="1.6" fill="#6ea8d8"/>
<rect x="892.0" y="448.6" width="4.5" height="42.7" rx="1.6" fill="#6ea8d8"/>
<rect x="900.0" y="447.0" width="4.5" height="46.0" rx="1.6" fill="#6ea8d8"/>
<rect x="908.0" y="442.6" width="4.5" height="54.8" rx="1.6" fill="#6ea8d8"/>
<rect x="916.0" y="446.1" width="4.5" height="47.7" rx="1.6" fill="#6ea8d8"/>
<rect x="924.0" y="443.4" width="4.5" height="53.1" rx="1.6" fill="#6ea8d8"/>
<rect x="932.0" y="442.5" width="4.5" height="54.9" rx="1.6" fill="#6ea8d8"/>
<rect x="940.0" y="436.2" width="4.5" height="67.7" rx="1.6" fill="#6ea8d8"/>
<rect x="948.0" y="432.0" width="4.5" height="76.0" rx="1.6" fill="#6ea8d8"/>
<rect x="956.0" y="435.3" width="4.5" height="69.4" rx="1.6" fill="#6ea8d8"/>
<rect x="964.0" y="446.9" width="4.5" height="46.2" rx="1.6" fill="#6ea8d8"/>
<rect x="972.0" y="444.0" width="4.5" height="52.1" rx="1.6" fill="#6ea8d8"/>
<rect x="980.0" y="434.2" width="4.5" height="71.6" rx="1.6" fill="#6ea8d8"/>
<rect x="988.0" y="432.0" width="4.5" height="76.0" rx="1.6" fill="#6ea8d8"/>
<rect x="996.0" y="433.4" width="4.5" height="73.2" rx="1.6" fill="#6ea8d8"/>
<rect x="1004.0" y="450.5" width="4.5" height="39.0" rx="1.6" fill="#6ea8d8"/>
<rect x="1012.0" y="454.1" width="4.5" height="31.8" rx="1.6" fill="#6ea8d8"/>
<rect x="1020.0" y="441.8" width="4.5" height="56.5" rx="1.6" fill="#6ea8d8"/>
<rect x="1028.0" y="433.4" width="4.5" height="73.1" rx="1.6" fill="#6ea8d8"/>
<rect x="1036.0" y="439.7" width="4.5" height="60.5" rx="1.6" fill="#6ea8d8"/>
<rect x="1044.0" y="453.0" width="4.5" height="34.0" rx="1.6" fill="#6ea8d8"/>
<rect x="1052.0" y="459.9" width="4.5" height="20.1" rx="1.6" fill="#6ea8d8"/>
<rect x="1060.0" y="444.7" width="4.5" height="50.7" rx="1.6" fill="#6ea8d8"/>
<rect x="1068.0" y="432.0" width="4.5" height="76.0" rx="1.6" fill="#6ea8d8"/>
<rect x="1076.0" y="433.2" width="4.5" height="73.6" rx="1.6" fill="#6ea8d8"/>
<rect x="1084.0" y="441.7" width="4.5" height="56.5" rx="1.6" fill="#6ea8d8"/>
<rect x="1092.0" y="445.6" width="4.5" height="48.9" rx="1.6" fill="#6ea8d8"/>
<rect x="1100.0" y="442.9" width="4.5" height="54.2" rx="1.6" fill="#6ea8d8"/>
<rect x="1108.0" y="432.0" width="4.5" height="76.0" rx="1.6" fill="#6ea8d8"/>
<rect x="1116.0" y="432.9" width="4.5" height="74.2" rx="1.6" fill="#6ea8d8"/>
<rect x="1124.0" y="438.4" width="4.5" height="63.2" rx="1.6" fill="#6ea8d8"/>
<rect x="1132.0" y="438.9" width="4.5" height="62.1" rx="1.6" fill="#6ea8d8"/>
<rect x="1140.0" y="438.8" width="4.5" height="62.4" rx="1.6" fill="#6ea8d8"/>
<rect x="1148.0" y="440.8" width="4.5" height="58.3" rx="1.6" fill="#6ea8d8"/>
<rect x="1156.0" y="442.5" width="4.5" height="55.0" rx="1.6" fill="#6ea8d8"/>
<rect x="1164.0" y="444.5" width="4.5" height="51.0" rx="1.6" fill="#6ea8d8"/>
<rect x="1172.0" y="441.1" width="4.5" height="57.8" rx="1.6" fill="#6ea8d8"/>
<rect x="1180.0" y="440.2" width="4.5" height="59.5" rx="1.6" fill="#6ea8d8"/>
<rect x="1188.0" y="451.3" width="4.5" height="37.5" rx="1.6" fill="#6ea8d8"/>
<rect x="1196.0" y="454.3" width="4.5" height="31.4" rx="1.6" fill="#6ea8d8"/>
<rect x="1204.0" y="448.3" width="4.5" height="43.4" rx="1.6" fill="#6ea8d8"/>
<rect x="1212.0" y="436.6" width="4.5" height="66.8" rx="1.6" fill="#6ea8d8"/>
<rect x="1220.0" y="432.0" width="4.5" height="76.0" rx="1.6" fill="#6ea8d8"/>
<rect x="1228.0" y="438.5" width="4.5" height="63.1" rx="1.6" fill="#6ea8d8"/>
<rect x="1236.0" y="453.8" width="4.5" height="32.3" rx="1.6" fill="#6ea8d8"/>
<rect x="1244.0" y="445.4" width="4.5" height="49.2" rx="1.6" fill="#6ea8d8"/>
<rect x="1252.0" y="432.0" width="4.5" height="76.0" rx="1.6" fill="#6ea8d8"/>
<rect x="1260.0" y="432.0" width="4.5" height="76.0" rx="1.6" fill="#6ea8d8"/>
<rect x="1268.0" y="433.0" width="4.5" height="73.9" rx="1.6" fill="#6ea8d8"/>
<rect x="1276.0" y="447.7" width="4.5" height="44.6" rx="1.6" fill="#6ea8d8"/>
<rect x="1284.0" y="450.6" width="4.5" height="38.8" rx="1.6" fill="#6ea8d8"/>
<rect x="1292.0" y="435.4" width="4.5" height="69.2" rx="1.6" fill="#6ea8d8"/>
<rect x="1300.0" y="432.0" width="4.5" height="76.0" rx="1.6" fill="#6ea8d8"/>
<rect x="1308.0" y="437.3" width="4.5" height="65.3" rx="1.6" fill="#6ea8d8"/>
<rect x="1316.0" y="449.5" width="4.5" height="41.1" rx="1.6" fill="#6ea8d8"/>
<rect x="1324.0" y="455.1" width="4.5" height="29.9" rx="1.6" fill="#6ea8d8"/>
<rect x="1332.0" y="447.8" width="4.5" height="44.5" rx="1.6" fill="#6ea8d8"/>
<text x="206.0" y="400" font-size="22" fill="#98a0ad">your voiced line</text>
<text x="770.0" y="400" font-size="22" fill="#6ea8d8">NPC reply</text>
<path d="M200.0 538 L200.0 548 L704.0 548 L704.0 538" fill="none" stroke="#3a3f4b" stroke-width="1.8"/>
<text x="392.0" y="578" font-size="20" fill="#98a0ad" text-anchor="middle">the plugin watches this audio for the real end</text>
<line x1="734.0" y1="516" x2="734.0" y2="558" stroke="#3a3f4b" stroke-width="1.5"/>
<text x="734.0" y="578" font-size="20" fill="#98a0ad" text-anchor="middle">gap (default 250 ms)</text>
<line x1="200" y1="720" x2="1400" y2="720" stroke="#3a3f4b" stroke-width="2"/>
<polygon points="1400,720 1386,713 1386,727" fill="#3a3f4b"/>
<text x="200" y="754" font-size="20" fill="#98a0ad">time</text>
</svg>